<?xml version="1.0" encoding="UTF-8" standalone="no"?>
<svg
   xmlns:dc="http://purl.org/dc/elements/1.1/"
   xmlns:cc="http://creativecommons.org/ns#"
   xmlns:rdf="http://www.w3.org/1999/02/22-rdf-syntax-ns#"
   xmlns:svg="http://www.w3.org/2000/svg"
   xmlns="http://www.w3.org/2000/svg"
   xmlns:sodipodi="http://sodipodi.sourceforge.net/DTD/sodipodi-0.dtd"
   xmlns:inkscape="http://www.inkscape.org/namespaces/inkscape"
   viewBox="0 0 3882.5 1199.5"
   id="svg2"
   version="1.1"
   inkscape:version="0.48.4 r9939"
   width="233px"
   height="72px"
   sodipodi:docname="logo.svg">
  <metadata
     id="metadata15">
    <rdf:RDF>
      <cc:Work
         rdf:about="">
        <dc:format>image/svg+xml</dc:format>
        <dc:type
           rdf:resource="http://purl.org/dc/dcmitype/StillImage" />
      </cc:Work>
    </rdf:RDF>
  </metadata>
  <defs
     id="defs13" />
  <sodipodi:namedview
     pagecolor="#ffffff"
     bordercolor="#666666"
     borderopacity="1"
     objecttolerance="10"
     gridtolerance="10"
     guidetolerance="10"
     inkscape:pageopacity="0"
     inkscape:pageshadow="2"
     inkscape:window-width="1855"
     inkscape:window-height="1176"
     id="namedview11"
     showgrid="true"
     inkscape:zoom="0.35355339"
     inkscape:cx="1959.7656"
     inkscape:cy="492.54387"
     inkscape:window-x="65"
     inkscape:window-y="24"
     inkscape:window-maximized="1"
     inkscape:current-layer="svg2"
     fit-margin-top="0"
     fit-margin-left="0"
     fit-margin-right="0"
     fit-margin-bottom="0">
    <inkscape:grid
       type="xygrid"
       id="grid2994"
       empspacing="5"
       visible="true"
       enabled="true"
       snapvisiblegridlinesonly="true"
       originx="-201px"
       originy="-199.5px" />
  </sodipodi:namedview>
  <path
     d="m 1393.2757,1171.1415 c 0,0 55.4121,-56.7118 55.4121,-56.7118 0,0 17.4985,-18.904 17.4985,-18.904 0,0 165.2641,-169.1407 165.2641,-169.1407 0,0 243.0354,-248.73632 243.0354,-248.73632 0,0 12.6378,-13.92924 12.6378,-13.92924 0,0 361.6367,-370.11964 361.6367,-370.11964 0,0 47.6252,-48.75232 47.6252,-48.75232 0,0 10.7033,-11.93934 10.7033,-11.93934 0,0 142.9048,-146.25696 142.9048,-146.25696 0,0 49.5793,-50.7422 49.5793,-50.7422 3.626,-3.71115 14.5043,-15.81963 18.4706,-17.31205 1.886,-0.71636 4.7732,-0.59697 6.805,-0.59697 0,0 518.1515,0 518.1515,0 0,0 -28.1921,28.85342 -28.1921,28.85342 0,0 -61.2352,62.68154 -61.2352,62.68154 0,0 -9.7409,10.94441 -9.7409,10.94441 0,0 -62.2073,63.67649 -62.2073,63.67649 0,0 -123.462,126.35806 -123.462,126.35806 0,0 -224.5647,229.83235 -224.5647,229.83235 0,0 -12.6379,13.92923 -12.6379,13.92923 0,0 -348.9987,357.18544 -348.9987,357.18544 0,0 -60.2632,61.6865 -60.2632,61.6865 0,0 -10.7032,11.9393 -10.7032,11.9393 0,0 -139.0163,142.2773 -139.0163,142.2773 0,0 -51.5235,52.7321 -51.5235,52.7321 0,0 -18.4706,17.312 -18.4706,17.312 0,0 -6.8051,0.5969 -6.8051,0.5969 0,0 -344.1381,0 -344.1381,0 0,0 -152.6263,0 -152.6263,0 0,0 -14.582,0.995 -14.582,0.995 0,0 -5.8329,0 -5.8329,0 3.1303,-6.7855 19.2387,-21.6798 25.2757,-27.8585 z"
     id="path4"
     inkscape:connector-curvature="0"
     style="fill:#fccc00;stroke:#000000;stroke-width:1;stroke-opacity:1;marker-start:none" />
  <path
     d="m 1997.96,1186.0876 c 0,0 17.04,-17.8787 17.04,-17.8787 0,0 19.96,-19.8652 19.96,-19.8652 0,0 9.05,-9.9326 9.05,-9.9326 0,0 26.98,-26.818 26.98,-26.818 0,0 9.05,-9.9326 9.05,-9.9326 0,0 27.92,-27.8113 27.92,-27.8113 0,0 8.08,-8.9393 8.08,-8.9393 0,0 27.95,-27.8113 27.95,-27.8113 0,0 9.05,-9.9326 9.05,-9.9326 0,0 28.92,-28.8046 28.92,-28.8046 0,0 8.08,-8.9393 8.08,-8.9393 0,0 64.92,-65.5552 64.92,-65.5552 0,0 265.08,-271.16008 265.08,-271.16008 0,0 64.92,-65.55518 64.92,-65.55518 0,0 118.08,-121.17776 118.08,-121.17776 0,0 28.92,-28.80455 28.92,-28.80455 0,0 8.08,-8.93934 8.08,-8.93934 0,0 28.92,-28.80455 28.92,-28.80455 0,0 9.05,-9.9326 9.05,-9.9326 0,0 26.95,-26.81803 26.95,-26.81803 0,0 67.04,-68.53496 67.04,-68.53496 0,0 16.01,-16.88543 16.01,-16.88543 0,0 26.95,-26.81803 26.95,-26.81803 0,0 10.04,-10.92586 10.04,-10.92586 0,0 26.96,-26.81803 26.96,-26.81803 0,0 8.08,-8.93934 8.08,-8.93934 0,0 64.92,-65.55518 64.92,-65.55518 0,0 8.08,-8.93934 8.08,-8.93934 0,0 28.92,-28.80455 28.92,-28.80455 0,0 13.04,-13.90565 13.04,-13.90565 0,0 33.96,-33.77085 33.96,-33.77085 0,0 16.04,-16.88542 16.04,-16.88542 0,0 16.28,-15.32601 16.28,-15.32601 0,0 6.72,-0.56616 6.72,-0.56616 0,0 292,0 292,0 0,0 -28,28.80455 -28,28.80455 0,0 -17.96,17.87869 -17.96,17.87869 0,0 -9.05,9.9326 -9.05,9.9326 0,0 -27.9,27.81129 -27.9,27.81129 0,0 -36.05,36.75063 -36.05,36.75063 0,0 -10.04,10.92586 -10.04,10.92586 0,0 -26.96,26.81803 -26.96,26.81803 0,0 -145.03,147.99579 -145.03,147.99579 0,0 -9.05,9.9326 -9.05,9.9326 0,0 -27.95,27.81129 -27.95,27.81129 0,0 -9.05,9.9326 -9.05,9.9326 0,0 -27.95,27.81129 -27.95,27.81129 0,0 -9.05,9.93261 -9.05,9.93261 0,0 -27.92,27.81129 -27.92,27.81129 0,0 -8.08,8.93934 -8.08,8.93934 0,0 -28.92,28.80455 -28.92,28.80455 0,0 -118.08,121.17776 -118.08,121.17776 0,0 -27.95,27.81129 -27.95,27.81129 0,0 -9.05,9.9326 -9.05,9.9326 0,0 -27.95,27.81129 -27.95,27.81129 0,0 -9.05,9.9326 -9.05,9.9326 0,0 -27.92,27.81129 -27.92,27.81129 0,0 -8.08,8.93934 -8.08,8.93934 0,0 -28.92,28.80455 -28.92,28.80455 0,0 -8.08,8.93934 -8.08,8.93934 0,0 -28.92,28.80455 -28.92,28.80455 0,0 -9.05,9.93261 -9.05,9.93261 0,0 -26.95,26.81807 -26.95,26.81807 0,0 -9.05,9.9326 -9.05,9.9326 0,0 -27.95,27.8112 -27.95,27.8112 0,0 -61.04,62.5754 -61.04,62.5754 0,0 -21.01,21.8518 -21.01,21.8518 0,0 -27.95,27.8113 -27.95,27.8113 0,0 -10.04,10.9258 -10.04,10.9258 0,0 -26.96,26.8181 -26.96,26.8181 0,0 -8.08,8.9393 -8.08,8.9393 0,0 -64.92,65.5552 -64.92,65.5552 0,0 -8.08,8.9393 -8.08,8.9393 0,0 -28.92,28.8046 -28.92,28.8046 0,0 -14.04,14.8989 -14.04,14.8989 0,0 -51,51.6495 -51,51.6495 0,0 -17.01,16.2895 -17.01,16.2895 0,0 -6.99,0.5959 -6.99,0.5959 0,0 -189,0 -189,0 0,0 -84,0 -84,0 0,0 -14,0.9933 -14,0.9933 0,0 -4,0 -4,0 0,0 10.96,-12.9124 10.96,-12.9124 z"
     id="path6"
     inkscape:connector-curvature="0"
     style="fill:#fccc00;stroke:#000000;stroke-width:1" />
  <path
     d="m 2435.83,1174.1685 c 0,0 20.08,-20.8585 20.08,-20.8585 0,0 27.13,-28.8045 27.13,-28.8045 0,0 13.87,-13.9057 13.87,-13.9057 0,0 62.05,-64.5619 62.05,-64.5619 0,0 125,-130.1171 125,-130.1171 0,0 384.08,-400.2839 384.08,-400.2839 0,0 146,-151.96883 146,-151.96883 0,0 42,-43.70345 42,-43.70345 0,0 12.87,-12.91239 12.87,-12.91239 0,0 83.05,-86.41365 83.05,-86.41365 0,0 125,-130.1171 125,-130.1171 0,0 42,-43.70345 42,-43.70345 0,0 9.05,-9.9326 9.05,-9.9326 0,0 17.27,-16.31927 17.27,-16.31927 0,0 6.72,-0.56616 6.72,-0.56616 0,0 330,0 330,0 0,0 -1,17.87869 -1,17.87869 0,0 0,245.33529 0,245.33529 -0.02,11.4225 -6.23,15.12736 -14,22.84499 0,0 -24.96,25.82477 -24.96,25.82477 0,0 -115.03,120.1845 -115.03,120.1845 0,0 -9.05,9.9326 -9.05,9.9326 0,0 -38.05,39.73042 -38.05,39.73042 0,0 -11.87,11.91912 -11.87,11.91912 0,0 -46.13,48.66975 -46.13,48.66975 0,0 -31.87,32.7776 -31.87,32.7776 0,0 -85.13,89.39342 -85.13,89.39342 0,0 -32.82,33.77086 -32.82,33.77086 0,0 -161.18,168.85429 -161.18,168.85429 0,0 -32.82,33.7708 -32.82,33.7708 0,0 -142.18,148.9891 -142.18,148.9891 0,0 -13.82,13.9056 -13.82,13.9056 0,0 -26.13,27.8113 -26.13,27.8113 0,0 -14.68,14.8989 -14.68,14.8989 0,0 -17.19,17.8787 -17.19,17.8787 0,0 -35.09,36.7506 -35.09,36.7506 -4.01,4.0029 -12.46,14.6307 -17,16.2895 -1.94,0.7151 -4.91,0.5959 -7,0.5959 0,0 -395,0 -395,0 0,0 -175,0 -175,0 0,0 -15,0.9933 -15,0.9933 0,0 -7,0 -7,0 0,0 22.83,-24.8315 22.83,-24.8315 z"
     id="path8"
     inkscape:connector-curvature="0"
     style="fill:#e60204;stroke:#000000;stroke-width:1" />
  <path
     id="Selection #1"
     stroke="0"
     d="m 1299,0 c 0,0 0,404 0,404 0,0 -95,0 -95,0 0,0 0,-29 0,-29 -22.79,19.71 -53.09,36.95 -84,37 0,0 -17,0 -17,0 -20.34,-0.03 -41.93,-8.23 -58,-20.5 -31.4,-23.98 -47.01,-66.14 -50.08,-104.5 0,0 -0.92,-12 -0.92,-12 -0.03,-18.2 -0.62,-32.81 2.43,-51 7.39,-44.01 31.73,-85.6 72.57,-106.03 23.97,-12 42.73,-14.27 69,-13.97 22.06,0.26 46.57,8.92 66,19 0,0 0,-123 0,-123 0,0 95,0 95,0 z M 342,17 c 0,0 0,76 0,76 0,0 -121,0 -121,0 0,0 0,311 0,311 0,0 -101,0 -101,0 0,0 0,-311 0,-311 0,0 -120,0 -120,0 0,0 0,-76 0,-76 0,0 342,0 342,0 z m 1327,363 c 0,2.1 0.25,5.61 -0.99,7.35 -1.34,1.88 -5.83,3.4 -8.01,4.23 0,0 -22,7.44 -22,7.44 -39.45,12.14 -67.3,13.45 -108,12.98 0,0 -21,-1.84 -21,-1.84 -51.98,-5.56 -104.05,-26.8 -128.73,-76.16 -14.59,-29.18 -15.64,-55.31 -15.27,-87 0.08,-6.49 2.08,-20.42 3.4,-27 10.03,-50.15 41.64,-87.47 89.6,-105.58 27.87,-10.51 55.65,-11.76 85,-11.42 0,0 10,0.91 10,0.91 30.32,2.22 57.46,10.66 81,30.53 25.34,21.38 36.74,56.47 39.09,88.56 0,0 0.91,12 0.91,12 0,0 0,41 0,41 0,0 -214,0 -214,0 2.57,14.29 3.86,24.68 12.78,37 15.4,21.25 44.64,31.7 70.22,32 15.86,0.18 25.03,0.61 41,-2.08 7.8,-1.31 15.5,-3.39 23,-5.92 9.39,-3.17 23.23,-9.15 32,-13.78 0,0 18,-10.52 18,-10.52 2.93,-0.98 8.72,-0.7 12,-0.7 0,0 0,68 0,68 z M 748,104.91 c 0,0 12,-0.91 12,-0.91 0,0 22,0 22,0 19.44,0 36.74,0.73 56,3.92 29.41,4.87 59.74,14.94 76.92,41.08 17.52,26.65 15.08,60.49 15.08,91 0,0 0,164 0,164 0,0 -94,0 -94,0 0,0 0,-29 0,-29 0,0 -34,22.74 -34,22.74 -24.5,12.64 -45.1,14.3 -72,14.26 -28.31,-0.04 -58.22,-14.21 -75.24,-37 -15.8,-21.15 -17.05,-38.81 -16.76,-64 0.23,-19.32 8.37,-38.75 21.29,-52.96 28.81,-31.68 86.35,-38.17 126.71,-42.21 0,0 36,-2.92 36,-2.92 0,0 14,-0.91 14,-0.91 0,-5.66 0.07,-8.46 -1.75,-14 -5.49,-16.76 -21.49,-22.8 -37.25,-26 -34.08,-6.9 -64.4,-2.53 -97,8.33 0,0 -28,9.48 -28,9.48 -2.54,0.32 -6.32,0.19 -9,0 0,0 0,-71.81 0,-71.81 29.09,-5.85 55.25,-11.04 85,-13.09 z m -229,26.78 c 17.52,-11.28 41.95,-20.66 63,-20.65 0,0 17,0 17,0 0,0 9,0.96 9,0.96 0,0 0,90 0,90 0,0 -43,-4 -43,-4 -16.43,-0.03 -31.83,-0.06 -48,3.65 0,0 -19,5.02 -19,5.02 -2.27,0.75 -5.59,1.66 -6.98,3.75 -1.24,1.87 -1.02,5.37 -1.02,7.58 0,0 0,186 0,186 0,0 -95,0 -95,0 0,0 0,-292 0,-292 0,0 95,0 95,0 0,0 0,41 0,41 0,0 29,-21.31 29,-21.31 z m 1045.91,44.4 c -20.82,-20.82 -68.59,-17.26 -88.87,2.95 -10.54,10.5 -15.37,26.34 -16.04,40.96 0,0 120,0 120,0 -0.04,-14.96 -4.22,-33.04 -15.09,-43.91 z M 1106.92,199 c -17.44,23.79 -17.99,59.93 -14.05,88 1.89,13.46 6.61,28.89 16.42,38.71 13.65,13.67 35.39,16.47 53.71,14 9.42,-1.27 21.57,-5.12 30,-9.49 2.48,-1.29 8.57,-4.53 10.01,-6.75 1.23,-1.91 0.99,-5.23 0.99,-7.47 0,0 0,-127 0,-127 -0.01,-2.61 0.37,-6.19 -1.6,-8.18 -1.87,-1.9 -8.65,-3.66 -11.4,-4.35 -9.15,-2.27 -24.64,-4.06 -34,-3.19 -22.01,3.18 -36.04,6.58 -50.08,25.72 z M 791,272.42 c -11.57,1.64 -21.92,3.24 -33,7.27 -7.47,2.73 -15.1,7.51 -19.44,14.31 -5.26,8.24 -6.7,27.27 -2.12,36 1.83,3.49 5.45,7.08 8.56,9.47 15.59,12.01 47.43,9.72 65,3.11 6.29,-2.37 21.94,-9.84 24.98,-15.62 1.21,-2.31 1.01,-5.4 1.02,-7.96 0,0 0,-51 0,-51 0,0 -45,4.42 -45,4.42 z M 794,495 c 0,0 0,68 0,68 0,0 -95,0 -95,0 0,0 0,-68 0,-68 0,0 95,0 95,0 z m -636,16 c 44.76,0 90.53,0.46 128,28.9 24.41,18.53 38.95,48.45 39,79.1 0,0 0,20 0,20 -0.23,19.32 -9.29,45.84 -19.7,62 -11.35,17.62 -28.24,31.23 -46.3,41.57 -19.62,11.23 -46.36,18.39 -69,18.43 0,0 -26,0 -26,0 0,0 -48,0 -48,0 0,0 0,121 0,121 0,0 -97,0 -97,0 0,0 0,-371 0,-371 0,0 139,0 139,0 z m 1150,11 c 0,0 0,80 0,80 0,0 83,0 83,0 0,0 0,62 0,62 0,0 -83,0 -83,0 0,0 0,122 0,122 0.04,25.26 12.88,38.48 38,39.91 6.83,0.39 21.34,-3.03 28,-5.27 0,0 9,-3.45 9,-3.45 2.31,-0.29 5.58,-0.19 8,0 0,0 0,62.81 0,62.81 0,0 -33,5.49 -33,5.49 -18.55,2.46 -49.54,2.42 -68,0 -18.28,-2.83 -38.48,-9.3 -51.83,-22.66 C 1223.71,848.38 1217.24,822 1217,802 c 0,0 0,-138 0,-138 0,0 -37,0 -37,0 0,0 0,-62 0,-62 0,0 37,0 37,0 0,0 0,-80 0,-80 0,0 91,0 91,0 z M 146,691 c 0,0 13,-0.96 13,-0.96 15.97,-0.7 31.13,-1.76 45,-10.74 13.84,-8.96 19.26,-21.51 21.15,-37.3 2.54,-21.18 -2.37,-39.83 -22.15,-51.12 -8.48,-4.84 -23.22,-8.76 -33,-8.88 0,0 -20,-1 -20,-1 0,0 -34,0 -34,0 0,0 0,110 0,110 0,0 30,0 30,0 z m 218,-75 c 0,-1.99 -0.26,-5.67 0.99,-7.28 1.36,-1.74 4.94,-2.27 7.01,-2.72 0,0 15,-3 15,-3 0,0 55,-7.96 55,-7.96 0,0 10,0 10,0 0,0 12,-1.04 12,-1.04 53.72,-0.08 130.73,1.91 149.98,64 2.51,8.11 4.01,16.5 4.02,25 0,0 0,199 0,199 0,0 -89,0 -89,0 0,0 0,-29 0,-29 -20.86,17.92 -42.67,30.17 -70,34.56 -11.57,1.86 -23.31,1.57 -35,1.44 -8.57,-0.1 -20.96,-3.01 -29,-6.06 -15.72,-5.96 -32.05,-17.98 -41.48,-31.94 -19.64,-29.08 -20.07,-77.55 2.8,-105 29.07,-34.88 87.9,-41.96 130.68,-45.09 0,0 42,-2.91 42,-2.91 0,-5.57 0.06,-8.56 -1.75,-14 -5.23,-15.74 -20.53,-21.15 -35.25,-24.34 -11.23,-2.43 -22.62,-2.49 -34,-3.34 0,0 -9,0.64 -9,0.64 -21.09,0.93 -32.4,5.54 -52,11.18 -14.61,4.2 -17.25,7.86 -33,7.86 0,0 0,-60 0,-60 z m 643,-15.65 c 9.81,-3.26 19.75,-4.72 30,-5.44 0,0 9,-0.89 9,-0.89 0,0 11,0.89 11,0.89 27.12,1.9 50.48,10.61 67.34,33.09 5.6,7.47 9.81,16.11 12.63,25 3.15,9.94 6.01,26.6 6.03,37 0,0 0,192 0,192 0,0 -90,0 -90,0 0,0 0,-141 0,-141 0,0 -1,-14 -1,-14 -0.05,-11.27 -1.9,-31.06 -6.99,-41 -11.9,-23.23 -49.52,-20.65 -70.01,-12.4 -4.75,1.92 -18.58,7.54 -20.98,11.61 -1.23,2.09 -1.02,5.41 -1.02,7.79 0,0 0,189 0,189 0,0 -91,0 -91,0 0,0 0,-280 0,-280 0,0 91,0 91,0 0,0 0,30 0,30 13.49,-11.58 37.08,-26.01 54,-31.65 z m 415,193.35 c 3.29,1.1 10.61,6.45 14,8.61 0,0 18,9.38 18,9.38 19.1,8.75 48.97,17.06 70,17.31 0,0 11,0 11,0 11.12,-0.02 28.89,-2.03 38,-8.63 9.2,-6.68 11.68,-17.89 2.9,-26.16 -4.68,-4.4 -11.85,-6.22 -17.9,-7.92 0,0 -43,-8.37 -43,-8.37 -41.75,-6.91 -88.58,-20.98 -99.35,-67.92 -1.37,-5.98 -2.77,-16.93 -2.64,-23 0.15,-6.22 1.73,-16.08 3.66,-22 13.96,-42.76 60.14,-62.41 101.33,-68.13 0,0 18,-1.87 18,-1.87 0,0 17,-1 17,-1 0,0 4,0 4,0 0,0 19,1 19,1 17.14,0.21 44.31,5.96 61,10.71 4.47,1.27 20.71,5.5 22.98,8.79 1.25,1.82 1.02,5.33 1.02,7.5 0,0 0,64 0,64 -2.38,0 -5.76,0.13 -8,-0.51 0,0 -24,-13.07 -24,-13.07 -20.61,-9.05 -44.23,-17.15 -67,-17.42 0,0 -9,0 -9,0 -11.07,0.05 -29.99,3.28 -39,9.79 -9.58,6.92 -10.95,17.88 -1.96,26 8.44,7.61 32.46,11.51 43.96,13.81 42.21,8.43 95.97,11.78 113.31,59.4 4.12,11.34 4.83,21.09 4.69,33 -0.09,7.3 -2.02,17.07 -4.36,24 -14.8,43.98 -68.21,63.69 -110.64,67.08 0,0 -10,0.92 -10,0.92 0,0 -19,1 -19,1 0,0 -4,0 -4,0 0,0 -13,-1 -13,-1 -26.37,-0.3 -52.82,-5.2 -78,-13.02 -4.59,-1.43 -19.64,-5.75 -21.98,-9.37 -1.24,-1.93 -1.02,-5.35 -1.02,-7.61 0,0 0,-66 0,-66 2.98,0 7.24,-0.22 10,0.7 z M 792,602 c 0,0 0,280 0,280 0,0 -91,0 -91,0 0,0 0,-280 0,-280 0,0 91,0 91,0 z M 481,756.42 c -9.77,1.52 -19.83,3.17 -29,7.04 -25.93,10.95 -26.59,44.05 -11,55.78 16,12.03 46.14,10.13 64,3.15 5.71,-2.24 20.18,-9.29 22.98,-14.48 1.22,-2.26 1.01,-5.39 1.02,-7.91 0,0 0,-49 0,-49 0,0 -48,5.42 -48,5.42 z M 229,988 c 0,0 0,37 0,37 0,0 -51,0 -51,0 0,0 0,-37 0,-37 0,0 51,0 51,0 z m 372,0 c 0,0 0,37 0,37 0,0 -51,0 -51,0 0,0 0,-37 0,-37 0,0 51,0 51,0 z m 481,0 c 0,0 0,206 0,206 0,0 -48,0 -48,0 0,0 0,-14 0,-14 -6.81,4.31 -12.54,9.2 -20,12.68 -11.71,5.47 -19.53,5.46 -32,5.32 -36.1,-0.43 -54.95,-38.05 -55,-70 -0.02,-14.49 -0.41,-24.82 4.36,-39 10.05,-29.9 35.74,-49.35 67.64,-47.96 11.95,0.52 24.55,4.17 35,9.96 0,0 0,-63 0,-63 0,0 48,0 48,0 z M 64,997 c 0,0 0,158 0,158 0,0 91,0 91,0 0,0 0,39 0,39 0,0 -142,0 -142,0 0,0 0,-197 0,-197 0,0 51,0 51,0 z m 628,6 c 0,0 0,42 0,42 0,0 44,0 44,0 0,0 0,33 0,33 0,0 -44,0 -44,0 0,0 0,62 0,62 0.11,8.79 2.18,17.86 11,21.79 13.24,5.89 21.72,-2.17 33,-2.79 0,0 0,26 0,26 0,1.97 0.26,5.69 -0.99,7.27 -1.43,1.8 -5.82,2.28 -8.01,2.65 -6.59,1.11 -13.31,2.07 -20,2.08 -18.82,0.03 -41.75,0.33 -54.61,-16 -6.27,-7.96 -8.37,-19.11 -8.39,-29 0,0 0,-74 0,-74 0,0 -20,0 -20,0 0,0 0,-33 0,-33 0,0 20,0 20,0 0,0 0,-42 0,-42 0,0 48,0 48,0 z m -326,38.01 c 12.04,0.28 25.25,4.43 33.91,13.08 3.44,3.45 5.97,7.56 8.09,11.91 7.65,-6.11 20.19,-15.17 29,-19.14 18.23,-8.2 44.82,-8.84 59.91,6.23 9.94,9.93 14.07,25.2 14.09,38.91 0,0 0,102 0,102 0,0 -48,0 -48,0 0,0 0,-68 0,-68 0,-8.56 0.13,-27.73 -3.4,-35 -6.25,-12.84 -23.34,-11.66 -34.6,-6.98 -2.79,1.16 -8.39,3.81 -9.98,6.36 -1.24,1.99 -1.02,5.31 -1.02,7.62 0,0 0,96 0,96 0,0 -48,0 -48,0 0,0 0,-77 0,-77 -0.01,-6.26 -0.89,-20.68 -3.56,-26 -6.43,-12.82 -23.19,-11.6 -34.44,-6.85 -3.1,1.31 -8.19,3.23 -9.98,6.18 -1.24,2.04 -1.02,5.32 -1.02,7.67 0,0 0,96 0,96 0,0 -48,0 -48,0 0,0 0,-149 0,-149 0,0 48,0 48,0 0,0 0,16 0,16 13.69,-11.57 30.69,-20.4 49,-19.99 z M 905,1178 c 0,2.1 0.25,5.61 -0.99,7.35 -1.8,2.51 -12.66,5.59 -16.01,6.63 -18.95,5.86 -35.46,6.24 -55,6.02 -26.9,-0.32 -57.98,-11.09 -72.54,-35 -6.9,-11.35 -10.3,-26.79 -10.46,-40 -0.25,-21.74 5.28,-44.11 21.09,-59.91 20.36,-20.36 44.93,-22.4 71.91,-22.09 15.32,0.18 33.57,5.74 44.99,16.17 20.17,18.44 20.01,46.7 20.01,71.83 0,0 -109,0 -109,0 1.25,6.62 2.61,12.39 6.63,18 14.64,20.41 47.15,19.18 68.37,12 10.13,-3.43 21.21,-10.4 24,-11.3 2.36,-0.77 4.57,-0.68 7,-0.7 0,0 0,31 0,31 z M 228,1045 c 0,0 0,149 0,149 0,0 -49,0 -49,0 0,0 0,-149 0,-149 0,0 49,0 49,0 z m 372,0 c 0,0 0,149 0,149 0,0 -49,0 -49,0 0,0 0,-149 0,-149 0,0 49,0 49,0 z m 252.47,34.18 c -10.39,-11.8 -34.77,-9.73 -45.38,0.91 -5.4,5.43 -7.46,12.46 -8.09,19.91 0,0 60,0 60,0 -0.02,-7.83 -1.11,-14.66 -6.53,-20.82 z m 142.53,1.64 c -17.47,9.16 -18.2,29.09 -18,46.18 0.21,18.06 7.85,33.75 28,34 7.62,0.09 23.79,-1.85 27.98,-9.18 1.13,-1.99 1,-4.6 1.02,-6.82 0,0 0,-56 0,-56 0,-2.14 0.23,-5.71 -1.02,-7.49 -1.38,-1.96 -4.76,-2.75 -6.98,-3.22 -6.46,-1.38 -12.43,-1.62 -19,-1 -4.38,0.73 -8.01,1.44 -12,3.53 z"
     inkscape:connector-curvature="0"
     style="fill:#ffffff;stroke-width:1" />
</svg>
